<?xml version="1.0" encoding="UTF-8"?>
<svg id="Layer_2" data-name="Layer 2" xmlns="http://www.w3.org/2000/svg" viewBox="0 0 1000 500">
  <defs>
    <style>
      .cls-1 {
        fill: #fff;
      }

      .cls-2 {
        fill: #be1e2d;
      }
    </style>
  </defs>
  <g id="Layer_1-2" data-name="Layer 1">
    <rect class="cls-1" width="1000" height="500"/>
    <rect class="cls-2" x="50.5" y="25.5" width="900" height="450"/>
    <g>
      <path class="cls-1" d="M210.32,57.13v87.62h-11.31V57.13h11.31Z"/>
      <path class="cls-1" d="M230.08,144.75V57.13h12.35l28.08,44.33c6.5,10.27,11.57,19.5,15.73,28.47l.26-.13c-1.04-11.7-1.3-22.36-1.3-36.01V57.13h10.66v87.62h-11.44l-27.82-44.46c-6.11-9.75-11.96-19.76-16.38-29.25l-.39,.13c.65,11.05,.91,21.58,.91,36.14v37.44h-10.66Z"/>
      <path class="cls-1" d="M332.26,66.75h-26.65v-9.62h64.87v9.62h-26.78v78h-11.44V66.75Z"/>
      <path class="cls-1" d="M380.23,58.3c5.72-1.17,13.91-1.82,21.71-1.82,12.09,0,19.89,2.21,25.35,7.15,4.42,3.9,6.89,9.88,6.89,16.64,0,11.57-7.28,19.24-16.51,22.36v.39c6.76,2.34,10.79,8.58,12.87,17.68,2.86,12.22,4.94,20.67,6.76,24.05h-11.7c-1.43-2.47-3.38-10.01-5.85-20.93-2.6-12.09-7.28-16.64-17.55-17.03h-10.66v37.96h-11.31V58.3Zm11.31,39.91h11.57c12.09,0,19.76-6.63,19.76-16.64,0-11.31-8.19-16.25-20.15-16.38-5.46,0-9.36,.52-11.18,1.04v31.98Z"/>
      <path class="cls-1" d="M461.47,57.13v51.87c0,19.63,8.71,27.95,20.41,27.95,13,0,21.32-8.58,21.32-27.95V57.13h11.44v51.09c0,26.91-14.17,37.96-33.15,37.96-17.94,0-31.46-10.27-31.46-37.44V57.13h11.44Z"/>
      <path class="cls-1" d="M532.71,130.97c5.07,3.12,12.48,5.72,20.28,5.72,11.57,0,18.33-6.11,18.33-14.95,0-8.19-4.68-12.87-16.51-17.42-14.3-5.07-23.14-12.48-23.14-24.83,0-13.65,11.31-23.79,28.34-23.79,8.97,0,15.47,2.08,19.37,4.29l-3.12,9.23c-2.86-1.56-8.71-4.16-16.64-4.16-11.96,0-16.51,7.15-16.51,13.13,0,8.19,5.33,12.22,17.42,16.9,14.82,5.72,22.36,12.87,22.36,25.74,0,13.52-10.01,25.22-30.68,25.22-8.45,0-17.68-2.47-22.36-5.59l2.86-9.49Z"/>
      <path class="cls-1" d="M609.67,57.13v87.62h-11.31V57.13h11.31Z"/>
      <path class="cls-1" d="M704.32,100.03c0,30.16-18.33,46.15-40.69,46.15s-39.39-17.94-39.39-44.46c0-27.82,17.29-46.02,40.69-46.02s39.39,18.33,39.39,44.33Zm-67.99,1.43c0,18.72,10.14,35.49,27.95,35.49s28.08-16.51,28.08-36.4c0-17.42-9.1-35.62-27.95-35.62s-28.08,17.29-28.08,36.53Z"/>
      <path class="cls-1" d="M719,144.75V57.13h12.35l28.08,44.33c6.5,10.27,11.57,19.5,15.73,28.47l.26-.13c-1.04-11.7-1.3-22.36-1.3-36.01V57.13h10.66v87.62h-11.44l-27.82-44.46c-6.11-9.75-11.96-19.76-16.38-29.25l-.39,.13c.65,11.05,.91,21.58,.91,36.14v37.44h-10.66Z"/>
      <path class="cls-1" d="M227.87,214.3c6.89-1.04,15.08-1.82,24.05-1.82,16.25,0,27.82,3.77,35.49,10.92,7.8,7.15,12.35,17.29,12.35,31.46s-4.42,26-12.61,34.06c-8.19,8.19-21.71,12.61-38.74,12.61-8.06,0-14.82-.39-20.54-1.04v-86.19Zm11.31,77.48c2.86,.52,7.02,.65,11.44,.65,24.18,0,37.31-13.52,37.31-37.18,.13-20.67-11.57-33.8-35.49-33.8-5.85,0-10.27,.52-13.26,1.17v69.16Z"/>
      <path class="cls-1" d="M359.82,259.67h-34.06v31.59h37.96v9.49h-49.27v-87.62h47.32v9.49h-36.01v27.69h34.06v9.36Z"/>
      <path class="cls-1" d="M397.13,222.75h-26.65v-9.62h64.87v9.62h-26.78v78h-11.44v-78Z"/>
      <path class="cls-1" d="M490.47,259.67h-34.06v31.59h37.96v9.49h-49.27v-87.62h47.32v9.49h-36.01v27.69h34.06v9.36Z"/>
      <path class="cls-1" d="M570.29,297.89c-4.16,2.08-12.48,4.16-23.14,4.16-24.7,0-43.29-15.6-43.29-44.33s18.59-46.02,45.76-46.02c10.92,0,17.81,2.34,20.8,3.9l-2.73,9.23c-4.29-2.08-10.4-3.64-17.68-3.64-20.54,0-34.19,13.13-34.19,36.14,0,21.45,12.35,35.23,33.67,35.23,6.89,0,13.91-1.43,18.46-3.64l2.34,8.97Z"/>
      <path class="cls-1" d="M604.73,222.75h-26.65v-9.62h64.87v9.62h-26.78v78h-11.44v-78Z"/>
      <path class="cls-1" d="M698.07,259.67h-34.06v31.59h37.96v9.49h-49.27v-87.62h47.32v9.49h-36.01v27.69h34.06v9.36Z"/>
      <path class="cls-1" d="M716.66,214.3c6.89-1.04,15.08-1.82,24.05-1.82,16.25,0,27.82,3.77,35.49,10.92,7.8,7.15,12.35,17.29,12.35,31.46s-4.42,26-12.61,34.06c-8.19,8.19-21.71,12.61-38.74,12.61-8.06,0-14.82-.39-20.54-1.04v-86.19Zm11.31,77.48c2.86,.52,7.02,.65,11.44,.65,24.18,0,37.31-13.52,37.31-37.18,.13-20.67-11.57-33.8-35.49-33.8-5.85,0-10.27,.52-13.26,1.17v69.16Z"/>
      <path class="cls-1" d="M375.77,379.45c1.95,1.2,4.8,2.2,7.8,2.2,4.45,0,7.05-2.35,7.05-5.75,0-3.15-1.8-4.95-6.35-6.7-5.5-1.95-8.9-4.8-8.9-9.55,0-5.25,4.35-9.15,10.9-9.15,3.45,0,5.95,.8,7.45,1.65l-1.2,3.55c-1.1-.6-3.35-1.6-6.4-1.6-4.6,0-6.35,2.75-6.35,5.05,0,3.15,2.05,4.7,6.7,6.5,5.7,2.2,8.6,4.95,8.6,9.9,0,5.2-3.85,9.7-11.8,9.7-3.25,0-6.8-.95-8.6-2.15l1.1-3.65Z"/>
      <path class="cls-1" d="M407.42,354.75h-10.25v-3.7h24.95v3.7h-10.3v30h-4.4v-30Z"/>
      <path class="cls-1" d="M427.58,374.15l-3.5,10.6h-4.5l11.45-33.7h5.25l11.5,33.7h-4.65l-3.6-10.6h-11.95Zm11.05-3.4l-3.3-9.7c-.75-2.2-1.25-4.2-1.75-6.15h-.1c-.5,2-1.05,4.05-1.7,6.1l-3.3,9.75h10.15Z"/>
      <path class="cls-1" d="M452.72,384.75v-33.7h4.75l10.8,17.05c2.5,3.95,4.45,7.5,6.05,10.95l.1-.05c-.4-4.5-.5-8.6-.5-13.85v-14.1h4.1v33.7h-4.4l-10.7-17.1c-2.35-3.75-4.6-7.6-6.3-11.25l-.15,.05c.25,4.25,.35,8.3,.35,13.9v14.4h-4.1Z"/>
      <path class="cls-1" d="M485.62,351.5c2.65-.4,5.8-.7,9.25-.7,6.25,0,10.7,1.45,13.65,4.2,3,2.75,4.75,6.65,4.75,12.1s-1.7,10-4.85,13.1c-3.15,3.15-8.35,4.85-14.9,4.85-3.1,0-5.7-.15-7.9-.4v-33.15Zm4.35,29.8c1.1,.2,2.7,.25,4.4,.25,9.3,0,14.35-5.2,14.35-14.3,.05-7.95-4.45-13-13.65-13-2.25,0-3.95,.2-5.1,.45v26.6Z"/>
      <path class="cls-1" d="M529.52,351.5c1.9-.4,4.9-.7,7.95-.7,4.35,0,7.15,.75,9.25,2.45,1.75,1.3,2.8,3.3,2.8,5.95,0,3.25-2.15,6.1-5.7,7.4v.1c3.2,.8,6.95,3.45,6.95,8.45,0,2.9-1.15,5.1-2.85,6.75-2.35,2.15-6.15,3.15-11.65,3.15-3,0-5.3-.2-6.75-.4v-33.15Zm4.35,13.8h3.95c4.6,0,7.3-2.4,7.3-5.65,0-3.95-3-5.5-7.4-5.5-2,0-3.15,.15-3.85,.3v10.85Zm0,16.15c.85,.15,2.1,.2,3.65,.2,4.5,0,8.65-1.65,8.65-6.55,0-4.6-3.95-6.5-8.7-6.5h-3.6v12.85Z"/>
      <path class="cls-1" d="M562.07,374.15l-3.5,10.6h-4.5l11.45-33.7h5.25l11.5,33.7h-4.65l-3.6-10.6h-11.95Zm11.05-3.4l-3.3-9.7c-.75-2.2-1.25-4.2-1.75-6.15h-.1c-.5,2-1.05,4.05-1.7,6.1l-3.3,9.75h10.15Z"/>
      <path class="cls-1" d="M610.02,383.65c-1.6,.8-4.8,1.6-8.9,1.6-9.5,0-16.65-6-16.65-17.05s7.15-17.7,17.6-17.7c4.2,0,6.85,.9,8,1.5l-1.05,3.55c-1.65-.8-4-1.4-6.8-1.4-7.9,0-13.15,5.05-13.15,13.9,0,8.25,4.75,13.55,12.95,13.55,2.65,0,5.35-.55,7.1-1.4l.9,3.45Z"/>
      <path class="cls-1" d="M615.47,351.05h4.35v16.25h.15c.9-1.3,1.8-2.5,2.65-3.6l10.3-12.65h5.4l-12.2,14.3,13.15,19.4h-5.15l-11.1-16.55-3.2,3.7v12.85h-4.35v-33.7Z"/>
      <path class="cls-1" d="M213.2,411.5c2.65-.4,5.8-.7,9.25-.7,6.25,0,10.7,1.45,13.65,4.2,3,2.75,4.75,6.65,4.75,12.1s-1.7,10-4.85,13.1c-3.15,3.15-8.35,4.85-14.9,4.85-3.1,0-5.7-.15-7.9-.4v-33.15Zm4.35,29.8c1.1,.2,2.7,.25,4.4,.25,9.3,0,14.35-5.2,14.35-14.3,.05-7.95-4.45-13-13.65-13-2.25,0-3.95,.2-5.1,.45v26.6Z"/>
      <path class="cls-1" d="M275.3,427.55c0,11.6-7.05,17.75-15.65,17.75s-15.15-6.9-15.15-17.1c0-10.7,6.65-17.7,15.65-17.7s15.15,7.05,15.15,17.05Zm-26.15,.55c0,7.2,3.9,13.65,10.75,13.65s10.8-6.35,10.8-14c0-6.7-3.5-13.7-10.75-13.7s-10.8,6.65-10.8,14.05Z"/>
      <path class="cls-1" d="M291.55,444.75v-33.7h4.75l10.8,17.05c2.5,3.95,4.45,7.5,6.05,10.95l.1-.05c-.4-4.5-.5-8.6-.5-13.85v-14.1h4.1v33.7h-4.4l-10.7-17.1c-2.35-3.75-4.6-7.6-6.3-11.25l-.15,.05c.25,4.25,.35,8.3,.35,13.9v14.4h-4.1Z"/>
      <path class="cls-1" d="M353.25,427.55c0,11.6-7.05,17.75-15.65,17.75s-15.15-6.9-15.15-17.1c0-10.7,6.65-17.7,15.65-17.7s15.15,7.05,15.15,17.05Zm-26.15,.55c0,7.2,3.9,13.65,10.75,13.65s10.8-6.35,10.8-14c0-6.7-3.5-13.7-10.75-13.7s-10.8,6.65-10.8,14.05Z"/>
      <path class="cls-1" d="M364.05,414.75h-10.25v-3.7h24.95v3.7h-10.3v30h-4.4v-30Z"/>
      <path class="cls-1" d="M397.45,414.75h-10.25v-3.7h24.95v3.7h-10.3v30h-4.4v-30Z"/>
      <path class="cls-1" d="M443.35,427.55c0,11.6-7.05,17.75-15.65,17.75s-15.15-6.9-15.15-17.1c0-10.7,6.65-17.7,15.65-17.7s15.15,7.05,15.15,17.05Zm-26.15,.55c0,7.2,3.9,13.65,10.75,13.65s10.8-6.35,10.8-14c0-6.7-3.5-13.7-10.75-13.7s-10.8,6.65-10.8,14.05Z"/>
      <path class="cls-1" d="M453.35,411.05v19.95c0,7.55,3.35,10.75,7.85,10.75,5,0,8.2-3.3,8.2-10.75v-19.95h4.4v19.65c0,10.35-5.45,14.6-12.75,14.6-6.9,0-12.1-3.95-12.1-14.4v-19.85h4.4Z"/>
      <path class="cls-1" d="M504.9,443.65c-1.6,.8-4.8,1.6-8.9,1.6-9.5,0-16.65-6-16.65-17.05s7.15-17.7,17.6-17.7c4.2,0,6.85,.9,8,1.5l-1.05,3.55c-1.65-.8-4-1.4-6.8-1.4-7.9,0-13.15,5.05-13.15,13.9,0,8.25,4.75,13.55,12.95,13.55,2.65,0,5.35-.55,7.1-1.4l.9,3.45Z"/>
      <path class="cls-1" d="M514.7,411.05v14.1h16.3v-14.1h4.4v33.7h-4.4v-15.8h-16.3v15.8h-4.35v-33.7h4.35Z"/>
      <path class="cls-1" d="M557.9,414.75h-10.25v-3.7h24.95v3.7h-10.3v30h-4.4v-30Z"/>
      <path class="cls-1" d="M580.7,411.05v14.1h16.3v-14.1h4.4v33.7h-4.4v-15.8h-16.3v15.8h-4.35v-33.7h4.35Z"/>
      <path class="cls-1" d="M626.4,428.95h-13.1v12.15h14.6v3.65h-18.95v-33.7h18.2v3.65h-13.85v10.65h13.1v3.6Z"/>
      <path class="cls-1" d="M661.6,428.95h-13.1v12.15h14.6v3.65h-18.95v-33.7h18.2v3.65h-13.85v10.65h13.1v3.6Z"/>
      <path class="cls-1" d="M687.2,444.75l-4.3-7.45c-1.75-2.85-2.85-4.7-3.9-6.65h-.1c-.95,1.95-1.9,3.75-3.65,6.7l-4.05,7.4h-5l10.3-17.05-9.9-16.65h5.05l4.45,7.9c1.25,2.2,2.2,3.9,3.1,5.7h.15c.95-2,1.8-3.55,3.05-5.7l4.6-7.9h5l-10.25,16.4,10.5,17.3h-5.05Z"/>
      <path class="cls-1" d="M701.65,411.05v14.1h16.3v-14.1h4.4v33.7h-4.4v-15.8h-16.3v15.8h-4.35v-33.7h4.35Z"/>
      <path class="cls-1" d="M734.25,411.05v33.7h-4.35v-33.7h4.35Z"/>
      <path class="cls-1" d="M741.84,411.5c1.9-.4,4.9-.7,7.95-.7,4.35,0,7.15,.75,9.25,2.45,1.75,1.3,2.8,3.3,2.8,5.95,0,3.25-2.15,6.1-5.7,7.4v.1c3.2,.8,6.95,3.45,6.95,8.45,0,2.9-1.15,5.1-2.85,6.75-2.35,2.15-6.15,3.15-11.65,3.15-3,0-5.3-.2-6.75-.4v-33.15Zm4.35,13.8h3.95c4.6,0,7.3-2.4,7.3-5.65,0-3.95-3-5.5-7.4-5.5-2,0-3.15,.15-3.85,.3v10.85Zm0,16.15c.85,.15,2.1,.2,3.65,.2,4.5,0,8.65-1.65,8.65-6.55,0-4.6-3.95-6.5-8.7-6.5h-3.6v12.85Z"/>
      <path class="cls-1" d="M773.29,411.05v33.7h-4.35v-33.7h4.35Z"/>
      <path class="cls-1" d="M787.29,414.75h-10.25v-3.7h24.95v3.7h-10.3v30h-4.4v-30Z"/>
    </g>
  </g>
</svg>